<svg viewBox="0 0 1024 1024" version="1.1" xmlns="http://www.w3.org/2000/svg" width="48" height="48" stroke="currentColor" stroke-width="4">
    <path fill="currentColor" d="M663.085532 941.617711c-53.915957 0-103.881952-13.942547-135.971811-37.782511-10.568706 0.591471-19.891026 0.591471-30.315446 0-32.089859 23.839965-82.040505 37.782511-136.003534 37.782511-101.642958 0-175.465291-45.553499-175.465291-108.246353 0-30.459732 17.924231-57.833173 50.062186-77.387531-0.511653-0.799202-1.006933-1.518586-1.471514-2.270716-18.803251 13.766538-39.669488 17.668405-58.856479 11.208273-57.257052-19.426445-60.375066-119.454626-34.264385-203.637933 14.007015-44.99375 39.797401-80.281441 61.350277-103.705943-0.272199-3.021823-0.367367-6.011924-0.367367-8.985652 0-24.335245 6.347568-48.095391 18.819624-70.63985 0-0.287549 0-0.671289 0-1.006933 0-162.386414 130.807185-294.552549 291.578822-294.552549 160.755264 0 291.514353 132.166135 291.514353 294.552549 0 0.079818 0 0.207731 0 0.303922 12.774955 22.705118 19.218714 46.671972 19.218714 71.343885 0 3.309372-0.096191 6.460132-0.352017 9.689686 21.249977 23.296589 46.768163 58.31208 60.647265 102.970186 26.142403 84.21503 23.024389 184.243211-34.297131 203.669656-19.155269 6.507204-39.892569 2.558265-58.648748-11.08036-0.528026 0.751107-0.991584 1.518586-1.518586 2.222621 31.994692 19.650549 49.869804 46.880727 49.869804 77.307713C838.615291 896.064212 764.792958 941.617711 663.085532 941.617711L663.085532 941.617711zM534.005688 860.409155c5.164626 0 10.153244 1.838881 14.054087 5.196349 23.61586 20.386306 67.682495 33.033347 115.025757 33.033347 73.102948 0 132.549875-29.244045 132.549875-65.267493 0-19.042705-17.204847-37.174668-47.199998-49.694819-6.204305-2.558265-10.856255-7.930623-12.503778-14.390755-1.727341-6.507204-0.272199-13.430894 3.837398-18.675338 10.121522-12.887518 19.075451-26.654057 26.670429-40.96397 3.405563-6.299473 9.657964-10.585079 16.724917-11.288091 7.30743-0.799202 14.182001 2.046612 18.771529 7.594979 8.394181 9.993608 21.825075 22.160719 33.241079 18.291598 21.921265-7.498788 29.996175-76.172867 6.955412-150.234653-12.902868-41.636283-38.373982-73.709769-57.497529-93.26515-4.797259-4.877077-6.987135-11.751648-5.835915-18.547425 0.783853-4.749164 1.134847-9.16166 1.134847-13.606903 0-18.675338-5.452175-37.063127-16.244986-54.650691-2.286066-3.725858-3.437286-8.138354-3.118014-12.583596 0.096191-1.518586 0.144286-2.89391 0.144286-4.41352 0-138.754181-111.476931-251.573689-248.535493-251.573689-137.074935 0-248.599961 112.819508-248.599961 251.573689 0 1.6465 0.11154 3.325745 0.207731 4.9088 0.303922 4.460592-0.735757 8.857738-3.086291 12.679787-10.568706 17.412578-15.941064 35.591613-15.941064 54.05922 0 4.237511 0.367367 8.601912 1.103124 13.143345 1.039679 6.715959-1.151219 13.558807-5.900384 18.371416-19.314904 19.730367-45.105291 52.012607-58.120722 93.904717-22.976294 74.061786-14.902408 142.734842 7.03523 150.153812 11.592013 4.076852 24.943089-8.314363 33.385365-18.419512 4.573155-5.452175 11.512195-8.362458 18.755156-7.563256 7.066953 0.719384 13.399171 5.004991 16.724917 11.288091 7.563256 14.326287 16.500812 28.092825 26.670429 41.012066 4.124947 5.324262 5.531993 12.263301 3.805676 18.723434-1.679245 6.507204-6.315846 11.83249-12.503778 14.358009-30.124088 12.503778-47.40773 30.667463-47.40773 49.806359 0 36.023448 59.431577 65.267493 132.48643 65.267493 47.40773 0 91.474364-12.647041 115.121947-33.033347 4.285606-3.725858 9.737782-5.659907 15.669888-5.148253 14.437827 1.119497 26.01449 1.119497 40.85243 0C532.949636 860.409155 533.477662 860.409155 534.005688 860.409155L534.005688 860.409155z"></path>
</svg>