<svg viewBox="0 0 1024 1024" version="1.1" xmlns="http://www.w3.org/2000/svg" width="48" height="48" stroke="currentColor" stroke-width="4">
    <path fill="currentColor" d="M775.2192 102.4H248.832L51.2 382.9248l462.848 583.424L972.8 389.2736 775.2192 102.4zM401.408 347.8016L512 204.9536l132.5056 142.848H401.408z m247.7056 57.6L512 835.584 378.9312 406.016l270.1824-0.5632z m-98.5088-245.4016h177.408l-43.2128 143.4112-134.1952-143.4112zM351.8976 317.7984l-48.4352-157.7984h172.8512l-124.416 157.7984z m-50.688 30.0032H146.2272L253.952 197.4272l47.2576 150.3744zM281.6 405.4016h35.6864l118.6816 386.4576-294.912-386.4576H281.6z m426.24 0h177.9712l-302.9504 390.5024 124.9792-390.5024z m18.9952-57.6l46.08-144.5888 99.6864 144.5888h-145.7664z"></path>
</svg>