<svg viewBox="0 0 1024 1024" version="1.1" xmlns="http://www.w3.org/2000/svg" width="48" height="48" stroke="currentColor">
    <path fill="currentColor" d="M238.427786 330.546322c-10.41521 0-20.093641-1.812275-29.03529-5.454222-8.961092-3.64297-16.762779-8.627495-23.422456-14.997576-6.639211-6.370081-11.845793-13.656021-15.601326-21.837354-3.75451-8.179286-5.631254-17.119913-5.631254-26.819832 0-19.400862 7.218402-35.94056 21.679765-49.574069 14.43885-13.656021 31.782867-20.47431 52.010561-20.47431 20.22667 0 37.549198 6.818289 52.010561 20.47431 14.43885 13.633508 21.658276 30.173207 21.658276 49.574069 0 9.699919-1.877767 18.640546-5.632277 26.819832-3.75451 8.181333-8.962116 15.467273-15.601326 21.837354-6.639211 6.370081-14.437827 11.354606-23.400966 14.997576C258.498914 328.734046 248.820484 330.546322 238.427786 330.546322L238.427786 330.546322zM465.535247 263.246543c52.011584-15.154141 98.098225-25.770943 138.26197-31.827893 40.164768-6.056949 75.411527-8.80555 105.741299-8.181333 30.354332 0.602727 56.347333 3.933589 78.027098 9.990538 21.659299 6.056949 39.71963 13.344936 54.177923 21.837354 34.086329 20.00359 55.476499 47.897893 64.147996 83.681888 4.626367 27.870768 8.091282 60.010769 10.394744 96.398514 2.323928 30.912034 3.328815 68.059072 3.038196 111.419625-0.288572 43.338041-3.038196 91.995227-8.224312 145.972583-2.905166 27.290553-9.253758 49.865711-19.087731 67.744917-9.81146 17.902742-21.656229 32.609699-35.537378 44.12087-13.858636 11.533684-29.324886 20.00359-46.378284 25.457812-17.032932 5.476735-34.240849 9.096169-51.564399 10.930957-40.454364 4.247744-86.117356 0-136.967488-12.740162l14.731516-61.845557 61.553914 13.633508c14.437827 1.230014 26.864858 0.759293 37.281091-1.362021 10.392698-2.124384 19.355837-5.455245 26.864858-9.992585 7.511067-4.558829 13.723559-9.699919 18.642592-15.467273 4.894474-5.765307 8.804527-11.978822 11.69025-18.639522 6.369058-15.154141 9.54233-32.453133 9.54233-51.855018L801.871435 377.839441c0.581238-58.20054-24.429389-91.257423-74.986855-99.125625-50.556443-7.888667-122.951263 5.743818-217.137389 40.925085l43.338041 12.740162c-1.720178 6.659677-5.922896 14.997576-12.562107 25.009603-6.658653 9.991562-14.303774 21.055548-22.974247 33.192983l251.377214 0 0 53.664224L626.774535 444.245873l0 66.381873 141.2797 0 0 53.665247L626.774535 564.292993l0 111.86374c23.109324-7.867178 42.467207-18.169825 58.06751-30.91101l-12.136412-48.210002 66.741054-21.813818 55.494918 141.882428-82.360799 36.364209-14.730493-57.283658c-9.253758 7.264451-20.944008 15.155165-35.113729 23.64656-14.148231 8.470929-31.358195 16.204054-51.563376 23.178909-20.227694 6.970762-43.493583 12.58155-69.801762 16.827247-26.285666 4.247744-55.899124 5.76633-88.844467 4.561899-17.903765 0.602727-33.079396-1.231037-45.506427-5.477758-12.42703-4.244674-22.819728-10.30367-31.201629-18.170848-8.381901-7.890714-14.886035-16.83134-19.512403-26.844392-4.626367-9.989515-8.091282-20.450774-10.392698-31.379685-5.206582-24.853038-4.916986-53.351092 0.871857-85.492116l3.463891-2.726088 100.556207 0c-0.580215 11.510148-1.876744 24.854061-3.911076 40.030715-2.012843 15.153118-0.134053 27.869744 5.632277 38.19695 5.207605 8.469905 13.008268 13.791098 23.401989 15.913435 10.41521 2.12336 19.646456 3.174296 27.736715 3.174296 1.162476 0.604774 2.905166 0.916882 5.208629 0.916882L508.874311 564.29197 364.105137 564.29197l0-53.665247 144.769174 0 0-66.381873-37.282115 0c-8.091282 9.096169-15.891945 17.567098-23.401989 25.456788l-19.936051 20.921495c-6.347568 6.683213-12.717649 13.028735-19.065218 19.10922l-43.338041-40.030715c7.509021-8.493441 15.177678-18.036795 22.976294-28.653597 7.800663-10.595312 15.154141-21.525246 22.10546-32.744775 6.928806-11.19804 13.43294-22.283516 19.48989-33.190937 6.078439-10.906397 11.710716-20.920472 16.920368-30.017664-8.092305 3.039219-16.181541 6.371104-24.273846 10.014074-8.091282 3.64297-16.181541 7.576559-24.272823 11.82328-8.090259 10.30367-16.762779 21.077038-26.016537 32.29759-9.231245 11.197016-19.065218 21.970384-29.481452 32.275077 0 0.603751-3.596921-1.206478-10.81737-5.454222-7.219425-4.246721-15.46625-9.097192-24.718985-14.551414-10.393721-6.659677-22.240537-13.94664-35.539424-21.836331 18.506493-16.96437 34.980699-37.281091 49.418526-60.928674 14.43885-23.64656 26.574239-46.690392 36.408211-69.130474 11.555174-25.457812 21.660322-52.144614 30.330796-80.038918l104.021122 30.016641-6.928806 14.550391-7.801686 17.276479C474.207767 248.092401 470.161614 255.356852 465.535247 263.246543zM176.873872 358.75171c16.182564 12.718673 29.189809 23.043832 39.002292 30.91101 9.832949 7.889691 18.349927 15.020088 25.590841 21.390169 7.220449 6.347568 14.437827 13.187347 21.659299 20.450774 7.219425 7.286963 16.338107 16.672728 27.312042 28.206412 16.763802 17.568121 24.988114 38.801724 24.698518 63.656809-0.291642 24.853038-5.342682 53.6632-15.176654 86.405929l-7.801686 26.374694c-2.302439 6.057973-4.759397 12.270465-7.352455 18.639522-2.614547 6.372128-5.632277 13.343913-9.097192 20.920472-3.487428 7.578606-8.091282 17.746176-13.880125 30.464849l-21.680788 48.208978c-8.648984 18.799158-19.355837 43.049468-32.073486 72.752977l-112.670106-73.668837c23.691585-22.440082 45.641503-44.567032 65.868173-66.38085 17.34504-18.193361 34.240849-37.304627 50.714032-57.307194 16.47216-20.005636 27.871791-36.990472 34.241872-50.937113 6.927783-13.947663 9.230222-26.532283 6.927783-37.728276-2.301416-11.220552-6.056949-20.47431-11.263531-27.760251-6.371104-8.470929-14.729469-16.047488-25.143657-22.729677l-86.678128-56.391335L176.873872 358.75171z"></path>
</svg>