<svg viewBox="0 0 1024 1024" version="1.1" xmlns="http://www.w3.org/2000/svg" width="48" height="48" stroke="currentColor" stroke-width="4">
    <path fill="currentColor" d="M384 853.333a42.667 42.667 0 0 1 0 85.334h-42.667a256 256 0 0 1-256-256V640a42.667 42.667 0 0 1 85.334 0v42.667a170.667 170.667 0 0 0 170.666 170.666H384zM170.667 512a42.667 42.667 0 0 1-85.334 0V341.333a256 256 0 0 1 256-256h341.334a256 256 0 0 1 256 256v341.334a256 256 0 0 1-256 256H512a42.667 42.667 0 0 1 0-85.334h170.667a170.667 170.667 0 0 0 170.666-170.666V341.333a170.667 170.667 0 0 0-170.666-170.666H341.333a170.667 170.667 0 0 0-170.666 170.666V512z m426.666-213.333A85.333 85.333 0 0 0 682.667 384h25.6c9.386 0 17.066 7.68 17.066 17.067v51.2a17.067 17.067 0 0 1-17.066 17.066h-25.6a169.899 169.899 0 0 1-85.334-22.826v172.16A149.333 149.333 0 1 1 448 469.333h4.267c9.386 0 17.066 7.68 17.066 17.067v51.2a17.067 17.067 0 0 1-17.066 17.067H448a64 64 0 1 0 64 64v-345.6c0-9.387 7.68-17.067 17.067-17.067h51.2c9.386 0 17.066 7.68 17.066 17.067v25.6z"></path>
</svg>