<svg viewBox="0 0 1024 1024" version="1.1" xmlns="http://www.w3.org/2000/svg" width="48" height="48">
    <path fill="currentColor" d="M174.933333 744.533333c-4.266667 0-10.666667-2.133333-12.8-4.266666-6.4-6.4-8.533333-14.933333-6.4-23.466667l25.6-78.933333C102.4 578.133333 64 503.466667 64 416 64 258.133333 209.066667 128 388.266667 128c157.866667 0 298.666667 102.4 326.4 238.933333 2.133333 10.666667-4.266667 23.466667-17.066667 25.6-10.666667 2.133333-23.466667-4.266667-25.6-17.066666C648.533333 258.133333 526.933333 170.666667 388.266667 170.666667 232.533333 170.666667 106.666667 281.6 106.666667 416c0 76.8 38.4 142.933333 110.933333 196.266667 8.533333 6.4 10.666667 14.933333 8.533333 23.466666l-14.933333 44.8 59.733333-32c4.266667-2.133333 8.533333-2.133333 14.933334-2.133333l17.066666 4.266667c34.133333 6.4 61.866667 14.933333 96 10.666666h17.066667c12.8 0 21.333333 8.533333 21.333333 21.333334s-8.533333 21.333333-21.333333 21.333333h-14.933333c-40.533333 2.133333-74.666667-4.266667-108.8-12.8l-8.533334-2.133333-100.266666 51.2c0 4.266667-4.266667 4.266667-8.533334 4.266666z"></path>
    <path fill="currentColor" d="M264.533333 384c-29.866667 0-53.333333-23.466667-53.333333-53.333333S234.666667 277.333333 264.533333 277.333333s53.333333 23.466667 53.333334 53.333334-23.466667 53.333333-53.333334 53.333333zM524.8 377.6c-17.066667 8.533333-36.266667 8.533333-53.333333 0s-25.6-27.733333-25.6-46.933333c0-19.2 10.666667-36.266667 25.6-46.933334 17.066667-8.533333 36.266667-8.533333 53.333333 0s27.733333 27.733333 27.733333 46.933334c-2.133333 19.2-12.8 36.266667-27.733333 46.933333zM855.466667 896c-4.266667 0-6.4 0-10.666667-2.133333l-74.666667-42.666667c-27.733333 8.533333-57.6 14.933333-87.466666 14.933333-153.6 0-279.466667-110.933333-279.466667-249.6S529.066667 366.933333 682.666667 366.933333c149.333333 0 277.333333 113.066667 277.333333 249.6 0 66.133333-36.266667 132.266667-102.4 187.733334l19.2 66.133333c2.133333 8.533333 0 17.066667-6.4 23.466667-6.4 0-10.666667 2.133333-14.933333 2.133333z m-83.2-89.6c4.266667 0 6.4 0 10.666666 2.133333l36.266667 21.333334-8.533333-27.733334c-2.133333-8.533333 0-17.066667 8.533333-23.466666 64-49.066667 98.133333-106.666667 98.133333-162.133334 0-110.933333-108.8-206.933333-236.8-206.933333-132.266667 0-236.8 89.6-236.8 206.933333 0 113.066667 106.666667 206.933333 236.8 206.933334 27.733333 0 55.466667-8.533333 85.333334-14.933334 2.133333-2.133333 4.266667-2.133333 6.4-2.133333z"></path>
    <path fill="currentColor" d="M590.933333 584.533333c-21.333333 0-36.266667-17.066667-36.266666-36.266666 0-21.333333 17.066667-38.4 36.266666-38.4 21.333333 0 38.4 17.066667 38.4 38.4-2.133333 19.2-19.2 36.266667-38.4 36.266666zM791.466667 582.4c-10.666667 6.4-25.6 6.4-36.266667 0s-19.2-19.2-19.2-32 6.4-25.6 19.2-32c10.666667-6.4 25.6-6.4 36.266667 0s19.2 19.2 19.2 32-6.4 25.6-19.2 32z"></path>
</svg>