<svg viewBox="0 0 1024 1024" version="1.1" xmlns="http://www.w3.org/2000/svg" width="48" height="48">
    <path fill="currentColor" d="M816.853333 383.701333l-418.090666 239.274667-2.986667 1.962667a27.562667 27.562667 0 0 1-12.8 2.901333 27.946667 27.946667 0 0 1-24.746667-14.677333l-1.962666-3.925334-78.08-168.533333c-1.024-1.962667-1.024-3.925333-1.024-5.888 0-7.850667 5.930667-13.696 13.824-13.696 2.986667 0 5.973333 0.981333 8.917333 2.944l91.946667 64.64c6.912 3.925333 14.848 6.869333 23.722666 6.869333a39.978667 39.978667 0 0 0 14.848-2.944l353.066667-155.648C722.517333 267.648 624.384 221.866667 512 221.866667c-188.586667 0-337.066667 128.938667-337.066667 281.6 0 58.282667 21.333333 114.048 61.098667 161.322666 2.048 2.432 5.12 5.845333 9.130667 10.026667a170.666667 170.666667 0 0 1 46.976 132.352l-1.066667 12.672 30.549333-18.602667a170.666667 170.666667 0 0 1 115.413334-22.869333c9.045333 1.408 16.469333 2.517333 22.186666 3.242667 17.322667 2.304 34.986667 3.456 52.778667 3.456 188.586667 0 337.066667-128.938667 337.066667-281.6 0-42.496-11.52-83.2-32.213334-119.765334zM264.192 936.234667a42.666667 42.666667 0 0 1-65.109333-39.765334l8.021333-96.384a85.333333 85.333333 0 0 0-23.466667-66.176A298.368 298.368 0 0 1 170.666667 719.701333c-50.944-60.629333-81.066667-135.381333-81.066667-216.234666 0-202.666667 189.098667-366.933333 422.4-366.933334s422.4 164.266667 422.4 366.933334-189.098667 366.933333-422.4 366.933333c-21.76 0-43.093333-1.408-63.957333-4.181333a1007.36 1007.36 0 0 1-24.277334-3.584 85.333333 85.333333 0 0 0-57.728 11.434666l-101.845333 62.122667z"></path>
</svg>