<svg viewBox="0 0 1024 1024" version="1.1" xmlns="http://www.w3.org/2000/svg" width="48" height="48">
    <path fill="currentColor" d="M582.514286 215.428571C409.714286 152.457143 156.914286 37.371429 156.914286 37.371429c-17.942857-4.685714-20.457143 12.685714-20.457143 12.685714-5.714286 69.828571 38.4 183.428571 61.257143 208.914286 22.742857 25.485714 364.685714 129.942857 364.685714 129.942857S299.428571 335.885714 236 317.6c-63.542857-18.285714-43.314286 20.342857-43.314286 20.342857 13.028571 70.514286 74.171429 150.628571 122.514286 158.171429 48.228571 7.542857 251.542857 4.571429 251.542857 4.571428s-40.571429 4.685714-106.514286 13.6c-48.8 6.628571-110.857143 14.285714-126.971428 20.342857-37.828571 14.285714 27.428571 71.542857 27.428571 71.542858 96.8 87.771429 148.228571 57.714286 148.228572 57.714285 38.057143-12.228571 70.171429-21.142857 97.371428-27.657143L572.571429 776.114286h96.685714L616 987.428571l234.628571-310.742857H727.771429l25.485714-44.228571c0.342857 0.571429 0.457143 0.914286 0.457143 0.914286S840.914286 493.828571 874.285714 422.628571l0.685715-1.142857h-0.114286c5.714286-12.342857 9.828571-22.514286 11.428571-29.485714 19.428571-81.485714-130.857143-113.6-303.771428-176.571429z"></path>
</svg>