<svg viewBox="0 0 1024 1024" version="1.1" xmlns="http://www.w3.org/2000/svg" width="48" height="48" stroke="currentColor" stroke-width="4">
    <path fill="currentColor" d="M661.333333 192c0 23.893333 8.533333 44.373333 24.746667 61.013333 15.786667 16.64 35.84 24.32 60.586667 24.32 23.466667 0 42.666667-7.68 60.16-24.32 16.64-16.64 25.173333-37.12 25.173333-61.013333 0-22.613333-8.533333-42.666667-26.026667-60.16-16.64-17.066667-37.973333-25.173333-59.306666-25.173333-23.466667 0-42.666667 8.106667-59.733334 25.173333-16.64 17.493333-25.6 37.546667-25.6 60.16m277.333334 0c0 42.666667-16.64 93.44-48.64 151.893333-32 58.88-64 106.666667-96 144.213334l-47.36 55.893333c-15.36-15.786667-33.28-36.693333-54.613334-61.866667-21.333333-25.6-49.92-69.546667-84.906666-132.266666C571.733333 287.146667 554.666667 234.666667 554.666667 192c0-53.333333 17.92-98.56 55.466666-136.106667C647.253333 18.773333 692.48 0 746.666667 0c52.48 0 98.133333 18.773333 135.253333 55.893333 37.546667 37.546667 56.746667 82.773333 56.746667 136.106667m-42.666667 302.08V810.666667c0 21.333333-8.533333 42.666667-26.026667 59.306666-16.64 17.493333-37.973333 26.026667-59.306666 26.026667H213.333333c-21.333333 0-42.666667-8.533333-59.306666-26.026667C136.533333 853.333333 128 832 128 810.666667V213.333333c0-21.333333 8.533333-42.666667 26.026667-59.306666C170.666667 136.533333 192 128 213.333333 128h264.533334c-5.12 26.88-8.533333 48.213333-8.533334 64 0 50.773333 18.773333 110.506667 54.613334 179.2 36.266667 68.266667 66.56 119.466667 90.88 149.76 25.173333 31.573333 47.786667 58.453333 69.12 81.066667l62.72 67.84 64-67.84c54.186667-68.693333 82.773333-105.386667 85.333333-107.946667M384 618.666667v59.306666h96C469.333333 725.333333 437.333333 747.946667 384 747.946667c-29.44 0-54.186667-10.666667-73.813333-32A107.093333 107.093333 0 0 1 279.893333 640c0-29.44 10.24-54.613333 30.293334-75.946667 19.626667-21.333333 44.373333-32 73.813333-32 28.16 0 50.773333 8.533333 67.84 26.026667l46.08-43.946667c-32-29.44-69.12-44.8-111.786667-44.8H384c-46.506667 0-86.613333 17.493333-119.893333 50.773334C230.826667 553.386667 213.333333 593.493333 213.333333 640s17.493333 86.613333 50.773334 119.893333C297.386667 793.173333 337.493333 810.666667 384 810.666667c49.493333 0 89.173333-15.786667 119.04-46.506667 30.293333-30.72 44.8-70.826667 44.8-120.32 0-11.946667-0.426667-20.48-1.706667-25.173333H384z"></path>
</svg>