<svg viewBox="0 0 1024 1024" version="1.1" xmlns="http://www.w3.org/2000/svg" width="48" height="48" stroke="currentColor" stroke-width="4">
    <path fill="currentColor" d="M938.666667 512a426.666667 426.666667 0 0 0-847.786667-66.133333 20.48 20.48 0 0 0 12.373333 22.613333l187.733334 85.333333A128 128 0 0 1 373.76 512a20.053333 20.053333 0 0 0 16.213333-9.386667l34.133334-51.626666a21.76 21.76 0 0 0 3.413333-14.506667A82.773333 82.773333 0 0 1 426.666667 426.666667a170.666667 170.666667 0 1 1 170.666666 170.666666h-10.24a21.76 21.76 0 0 0-14.506666 3.413334l-51.626667 34.133333a20.053333 20.053333 0 0 0-9.386667 16.213333A128 128 0 0 1 256 640v-9.813333l-151.466667-67.413334a10.24 10.24 0 0 0-14.506666 11.093334A426.666667 426.666667 0 0 0 938.666667 512z"></path>
    <path fill="currentColor" d="M384 640m-42.666667 0a42.666667 42.666667 0 1 0 85.333334 0 42.666667 42.666667 0 1 0-85.333334 0Z"></path>
    <path fill="currentColor" d="M597.333333 426.666667m-85.333333 0a85.333333 85.333333 0 1 0 170.666667 0 85.333333 85.333333 0 1 0-170.666667 0Z"></path>
</svg>