<svg viewBox="0 0 1024 1024" version="1.1" xmlns="http://www.w3.org/2000/svg" width="48" height="48">
    <path fill="currentColor" d="M715.201561 633.781073c-0.099902-0.79922-0.199805-1.198829-0.199805-1.198829V413.196488c0-83.218732-70.730927-91.910244-212.492488-41.159805l36.764098 4.195902c-2.897171 9.690537-9.890341 36.764098-23.477073 36.764098h175.32878V460.550244h-95.207024v47.653463h95.207024v23.876683h-95.207024v95.606634c0-5.294829 32.168585-12.487805 45.155902-22.078439L632.382439 570.442927l50.550634-15.584781 32.268488 78.922927zM434.97522 508.103805h65.735804v-47.653464h-18.981463c-23.676878 22.977561-45.255805 46.055024-46.754341 47.653464z m77.02478-443.666732c-247.158634 0-447.562927 200.404293-447.562927 447.562927s200.404293 447.562927 447.562927 447.562927 447.562927-200.404293 447.562927-447.562927-200.404293-447.562927-447.562927-447.562927zM305.801366 279.626927c30.869854 0 55.845463 22.478049 55.845463 50.051122s-24.97561 49.95122-55.845463 49.951219-55.845463-22.478049-55.845464-49.951219c0-27.573073 25.075512-50.051122 55.845464-50.051122z m46.654439 300.506536c-14.685659 45.555512-11.089171 28.771902-69.532098 155.648l-84.617366-52.84839s94.407805-85.916098 113.888781-125.077853c20.579902-41.459512-22.677854-63.537951-22.677854-63.537952l-64.836683-40.460488 35.065756-54.047219c48.952195 36.364488 52.548683 39.461463 85.616391 72.429268 25.37522 25.774829 22.178341 61.240195 7.093073 107.894634zM812.606439 639.37561c-16.483902 154.948683-217.987122 97.304976-217.987122 97.304975l10.889366-44.25678 39.061854 10.090146c49.651512 3.196878 65.536-20.48 69.931707-41.059902l-51.449756 21.379122-10.889366-40.860098c-27.573073 21.179317-84.917073 51.649561-184.919415 48.952195-106.995512 2.697366-79.522341-127.275707-79.522341-127.275707l2.697366-7.992195H465.545366c-0.499512 23.876683-6.993171 48.35278 1.898146 62.439024 7.093073 11.388878 21.27922 16.78361 33.16761 17.283122V531.980488H381.627317v-23.876683h53.148098l-32.768-28.672c23.377171-24.576 46.754341-63.537951 61.140292-89.512585-11.788488 4.795317-23.876683 9.890341-36.164683 15.285073-12.188098 15.285073-26.074537 31.269463-41.659317 46.754341 0.599415 0.79922-53.747512-30.470244-53.747512-30.470244 56.145171-47.953171 87.714341-150.75278 87.714342-150.75278l78.223609 21.878634s-6.493659 15.185171-19.780683 38.462439c312.894439-88.513561 331.076683 54.346927 331.076683 54.346927s20.280195 99.003317 3.796293 253.952z m-97.604683-226.179122c0-83.218732-70.730927-91.910244-212.492488-41.159805l36.764098 4.195902c-2.897171 9.690537-9.890341 36.764098-23.477073 36.764098h175.32878V460.550244h-95.207024v47.653463h95.207024v23.876683h-95.207024v95.606634c0-5.294829 32.168585-12.487805 45.155902-22.078439L632.382439 570.442927l50.550634-15.584781 32.268488 78.922927c-0.099902-0.79922-0.199805-1.198829-0.199805-1.198829V413.196488z m-280.026536 94.907317h65.735804v-47.653464h-18.981463c-23.676878 22.977561-45.255805 46.055024-46.754341 47.653464z"></path>
    <path fill="currentColor" d="M715.201561 633.781073c-0.099902-0.79922-0.199805-1.198829-0.199805-1.198829V413.196488c0-83.218732-70.730927-91.910244-212.492488-41.159805l36.764098 4.195902c-2.897171 9.690537-9.890341 36.764098-23.477073 36.764098h175.32878V460.550244h-95.207024v47.653463h95.207024v23.876683h-95.207024v95.606634c0-5.294829 32.168585-12.487805 45.155902-22.078439L632.382439 570.442927l50.550634-15.584781 32.268488 78.922927zM434.97522 508.103805h65.735804v-47.653464h-18.981463c-23.676878 22.977561-45.255805 46.055024-46.754341 47.653464z m77.02478-443.666732c-247.158634 0-447.562927 200.404293-447.562927 447.562927s200.404293 447.562927 447.562927 447.562927 447.562927-200.404293 447.562927-447.562927-200.404293-447.562927-447.562927-447.562927zM305.801366 279.626927c30.869854 0 55.845463 22.478049 55.845463 50.051122s-24.97561 49.95122-55.845463 49.951219-55.845463-22.478049-55.845464-49.951219c0-27.573073 25.075512-50.051122 55.845464-50.051122z m46.654439 300.506536c-14.685659 45.555512-11.089171 28.771902-69.532098 155.648l-84.617366-52.84839s94.407805-85.916098 113.888781-125.077853c20.579902-41.459512-22.677854-63.537951-22.677854-63.537952l-64.836683-40.460488 35.065756-54.047219c48.952195 36.364488 52.548683 39.461463 85.616391 72.429268 25.37522 25.774829 22.178341 61.240195 7.093073 107.894634zM812.606439 639.37561c-16.483902 154.948683-217.987122 97.304976-217.987122 97.304975l10.889366-44.25678 39.061854 10.090146c49.651512 3.196878 65.536-20.48 69.931707-41.059902l-51.449756 21.379122-10.889366-40.860098c-27.573073 21.179317-84.917073 51.649561-184.919415 48.952195-106.995512 2.697366-79.522341-127.275707-79.522341-127.275707l2.697366-7.992195H465.545366c-0.499512 23.876683-6.993171 48.35278 1.898146 62.439024 7.093073 11.388878 21.27922 16.78361 33.16761 17.283122V531.980488H381.627317v-23.876683h53.148098l-32.768-28.672c23.377171-24.576 46.754341-63.537951 61.140292-89.512585-11.788488 4.795317-23.876683 9.890341-36.164683 15.285073-12.188098 15.285073-26.074537 31.269463-41.659317 46.754341 0.599415 0.79922-53.747512-30.470244-53.747512-30.470244 56.145171-47.953171 87.714341-150.75278 87.714342-150.75278l78.223609 21.878634s-6.493659 15.185171-19.780683 38.462439c312.894439-88.513561 331.076683 54.346927 331.076683 54.346927s20.280195 99.003317 3.796293 253.952z m-97.604683-226.179122c0-83.218732-70.730927-91.910244-212.492488-41.159805l36.764098 4.195902c-2.897171 9.690537-9.890341 36.764098-23.477073 36.764098h175.32878V460.550244h-95.207024v47.653463h95.207024v23.876683h-95.207024v95.606634c0-5.294829 32.168585-12.487805 45.155902-22.078439L632.382439 570.442927l50.550634-15.584781 32.268488 78.922927c-0.099902-0.79922-0.199805-1.198829-0.199805-1.198829V413.196488z m-280.026536 94.907317h65.735804v-47.653464h-18.981463c-23.676878 22.977561-45.255805 46.055024-46.754341 47.653464z"></path>
</svg>