<svg viewBox="0 0 1024 1024" version="1.1" xmlns="http://www.w3.org/2000/svg" width="48" height="48" stroke="currentColor" stroke-width="4">
    <path fill="currentColor" d="M861.658 109.937c-57.586 23.637-132.32 60.945-195.812 97.792-78.903 45.766-155.027 97.208-219.563 148.422l-12.745 10.08-2.318-2.783c-1.273-1.621-5.328-6.953-8.919-11.933-32.792-45.189-78.906-76.472-123.511-84.002-19.235-3.13-47.043-0.348-67.434 6.953-9.732 3.359-10.66 3.475-102.656 10.428-50.982 3.939-93.966 7.065-95.471 7.065-5.796 0-0.58 1.393 22.128 5.909 57.355 11.24 89.447 19.35 118.068 29.778 17.377 6.257 49.589 19.698 50.285 20.971 1.273 2.086-7.07 66.854-11.008 85.856-1.277 6.024-2.898 13.906-3.707 17.38-0.696 3.475-1.277 15.989-1.393 27.81 0 17.84 0.465 23.633 2.666 34.412 8.342 41.595 28.734 77.626 63.495 112.156 20.391 20.275 40.434 35.57 90.259 68.478 28.269 18.766 46.227 29.658 79.827 48.548 13.326 7.414 27.693 15.64 31.864 18.305 31.4 19.699 56.658 42.06 126.525 112.04 37.308 37.54 50.402 49.94 49.934 47.62-1.621-9.62-12.626-64.073-16.568-81.801-16.453-74.5-35.342-139.387-49.937-171.48-3.13-7.065-6.49-14.366-7.305-16.22l-1.502-3.478 30.82 0.464c25.954 0.349 76.24-1.505 77.741-2.778 0.116-0.232-1.273-5.448-3.355-11.588-2.086-6.14-3.478-11.353-3.246-11.705 0.351-0.228 8.806 3.479 19.002 8.343l18.418 8.686 33.601-9.495c18.422-5.216 34.065-9.739 34.645-10.08 0.465-0.229-2.433-3.942-6.485-8.226-4.055-4.171-9.619-10.196-12.513-13.21-6.028-6.485-7.882-6.953 20.62 4.98l20.046 8.343 22.829-8.343c12.513-4.628 23.285-8.687 23.866-9.031s-4.288-5.68-11.012-11.937l-12.049-11.353 20.507 6.837 20.627 6.721 54.112-19.347c29.89-10.66 57.119-20.398 60.597-21.551 3.474-1.048 6.72-2.434 7.3-2.782 1.274-1.273-56.193-26.529-107.294-47.155-58.853-23.754-144.25-54.34-179.24-64.192-7.302-1.969-13.787-4.055-14.255-4.515-0.46-0.58 12.165-19.234 28.153-41.711 15.876-22.48 28.973-41.018 28.973-41.134 0-0.232-3.598-0.81-8.117-1.157-4.397-0.465-8.11-1.161-8.11-1.51 0-0.344 17.268-25.37 38.352-55.497s38.468-55.152 38.584-55.73c0-0.463-3.71-1.276-8.342-1.74-4.632-0.345-8.687-0.925-8.92-1.157-0.467-0.464 8.92-13.558 60.482-84.234 15.527-21.204 28.156-38.813 27.928-38.93-0.232-0.238-8.926 3.12-19.467 7.408z"></path>
</svg>