<svg viewBox="0 0 1024 1024" version="1.1" xmlns="http://www.w3.org/2000/svg" width="48" height="48">
    <path fill="currentColor" d="M903.542857 350.4c-11.314286-45.028571 11.314286-116.8 83.885714-142.171429l-77.6-4.114285s-29.371429-102.857143-164.114285-112c-134.742857-9.257143-222.857143-3.428571-222.857143-3.428572s99.885714 63.542857 59.885714 176.8c-29.257143 60-75.2 109.257143-124.342857 165.371429-1.485714 1.485714-2.857143 2.971429-4 4.228571C291.885714 618.285714 36.571429 909.714286 36.571429 909.714286c281.028571 73.6 469.371429-7.2 580.8-104.114286 23.428571-0.228571 41.028571-0.342857 52.914285-0.342857 155.2 0 286.4-134.4 281.028572-283.885714-3.657143-102.742857-36.457143-125.942857-47.771429-170.971429z"></path>
</svg>